<?xml version="1.0" standalone="no"?>
<!DOCTYPE svg PUBLIC "-//W3C//DTD SVG 20010904//EN"
 "http://www.w3.org/TR/2001/REC-SVG-20010904/DTD/svg10.dtd">
<svg version="1.0" xmlns="http://www.w3.org/2000/svg"
 width="612.000000pt" height="612.000000pt" viewBox="0 0 612.000000 612.000000"
 preserveAspectRatio="xMidYMid meet">
<metadata>
Created by potrace 1.14, written by Peter Selinger 2001-2017
</metadata>
<g transform="translate(0.000000,612.000000) scale(0.100000,-0.100000)"
fill="#000000" stroke="none">
<path d="M3320 5570 c-19 -46 -84 -96 -190 -148 -137 -66 -213 -116 -266 -175
-51 -57 -101 -151 -110 -209 -4 -21 -9 -38 -11 -38 -2 0 -30 21 -61 46 -85 69
-205 121 -320 139 l-42 7 21 -54 c12 -29 32 -84 44 -123 20 -62 29 -74 73
-107 45 -33 92 -86 92 -102 0 -3 -24 13 -54 38 -71 57 -172 104 -249 115 -61
8 -127 5 -127 -8 0 -3 23 -19 51 -36 28 -16 57 -38 66 -47 15 -16 12 -17 -49
-11 -45 4 -90 0 -144 -12 -108 -24 -118 -31 -64 -45 152 -39 306 -108 420
-188 137 -96 282 -258 365 -405 l34 -62 67 -13 c67 -13 183 -66 221 -101 34
-32 60 -42 85 -32 13 6 19 10 14 10 -14 1 34 40 94 75 69 40 169 81 235 96 81
17 85 20 101 58 79 190 272 362 441 393 142 27 259 -13 375 -127 36 -35 60
-124 55 -199 -13 -196 -143 -333 -294 -310 -117 17 -263 125 -359 265 -57 84
-63 81 -89 -34 -26 -115 -5 -179 105 -321 65 -84 113 -169 124 -221 l7 -32
-46 16 c-25 8 -48 12 -51 10 -3 -3 5 -22 17 -42 14 -24 28 -79 40 -162 36
-232 90 -309 378 -543 271 -220 362 -331 433 -531 26 -72 35 -247 18 -344 -19
-107 -64 -237 -126 -359 -30 -60 -53 -111 -51 -113 12 -12 156 152 217 246
192 298 236 610 117 833 -66 124 -179 219 -387 326 -282 144 -402 260 -440
424 -11 47 -14 210 -4 220 4 4 19 -13 34 -36 49 -78 130 -139 311 -232 210
-108 285 -153 370 -221 143 -114 239 -255 301 -441 21 -63 38 -124 38 -134 0
-10 4 -19 9 -19 34 0 25 350 -12 490 -26 99 -94 253 -146 330 -16 24 -28 46
-27 48 7 6 132 -40 157 -58 15 -10 29 -17 31 -14 7 6 -20 169 -37 229 -75 253
-238 430 -467 505 -40 14 -75 26 -77 27 -2 1 3 26 12 55 9 29 23 108 32 176
19 150 35 192 92 240 l44 38 -42 13 c-23 7 -53 20 -66 28 -22 15 -22 16 -6 28
10 7 22 11 28 8 5 -4 7 -3 3 2 -4 4 -1 17 7 29 25 35 19 46 -17 35 -44 -13
-238 -1 -235 14 1 7 17 23 35 36 17 13 32 28 32 33 0 19 -241 -18 -357 -53
-38 -12 -85 -30 -105 -40 -21 -11 -38 -16 -38 -11 0 34 99 139 195 206 19 13
18 15 -19 21 -49 10 -167 0 -228 -19 -27 -8 -48 -13 -48 -12 0 0 5 17 10 36
20 69 31 166 24 214 l-6 50 -32 -35 c-47 -52 -92 -81 -191 -124 -49 -21 -114
-54 -142 -72 -29 -18 -53 -29 -53 -23 0 12 70 172 82 188 8 9 5 12 -9 12 -16
0 -57 -22 -139 -72 -7 -5 -9 23 -6 96 3 75 0 125 -13 182 -16 78 -71 214 -85
214 -4 0 -13 -14 -20 -30z m-215 -325 c-128 -169 -192 -393 -167 -586 14 -107
51 -233 102 -351 23 -51 44 -100 47 -108 10 -24 -78 77 -120 139 -96 139 -145
275 -154 426 -11 199 60 351 223 473 89 67 117 70 69 7z m131 -171 c-3 -9 -6
-20 -6 -25 0 -6 -5 -7 -12 -3 -7 4 -8 3 -4 -4 4 -6 -1 -40 -10 -74 -13 -45
-18 -104 -18 -205 -1 -91 -5 -142 -11 -140 -5 2 -25 34 -44 70 -62 120 -44
226 57 351 37 46 60 60 48 30z m480 -198 c-9 -37 -50 -80 -137 -146 -97 -75
-146 -133 -170 -207 l-20 -58 5 68 c10 130 73 217 223 308 45 28 85 55 89 60
10 17 17 1 10 -25z m484 -985 c30 -7 131 -16 225 -21 236 -13 382 -54 428
-120 8 -11 16 -17 19 -14 4 3 9 -4 13 -15 3 -12 10 -21 15 -21 9 0 60 -80 60
-92 0 -4 -21 4 -47 17 -98 46 -170 60 -379 75 -233 16 -314 43 -407 135 -26
26 -77 98 -77 108 0 2 21 -6 48 -18 26 -13 72 -28 102 -34z"/>
<path d="M1863 4711 c-78 -26 -130 -66 -169 -126 -80 -126 -83 -274 -9 -466 5
-13 -5 -20 -49 -34 -30 -9 -69 -30 -88 -46 l-33 -29 90 6 c83 6 277 -7 356
-23 l33 -6 -23 29 c-104 135 -144 227 -145 334 0 92 27 154 93 211 78 66 183
82 351 53 l35 -7 -25 20 c-68 55 -212 103 -304 103 -33 -1 -84 -9 -113 -19z"/>
<path d="M2225 4490 c-3 -4 3 -11 12 -14 37 -15 -6 -23 -68 -13 -36 5 -86 7
-111 3 -45 -7 -138 -57 -138 -74 0 -5 34 -12 76 -15 137 -10 187 -66 183 -201
-1 -39 0 -71 2 -70 25 3 139 77 179 116 121 118 120 218 -3 252 -71 20 -126
26 -132 16z"/>
<path d="M4020 4489 c-78 -15 -88 -18 -119 -45 -82 -69 6 -221 182 -315 l60
-32 -6 59 c-16 147 56 224 210 224 69 0 63 19 -20 60 -64 32 -119 37 -207 20
-50 -9 -63 -5 -38 14 18 13 14 27 -6 25 -6 -1 -31 -5 -56 -10z"/>
<path d="M2466 4192 c-15 -23 -55 -65 -88 -94 -167 -148 -309 -189 -577 -167
-206 17 -325 9 -394 -25 -72 -35 -161 -130 -212 -226 -66 -124 -85 -191 -30
-108 55 82 203 207 235 196 12 -4 -58 -61 -76 -61 -7 0 -12 -4 -11 -7 3 -10
-150 -196 -202 -246 -24 -23 -58 -50 -77 -60 -48 -26 -42 -37 15 -32 53 5 117
35 222 104 188 122 274 154 526 194 104 16 215 36 248 45 74 19 193 75 240
112 80 62 164 201 201 333 21 77 15 91 -20 42z"/>
<path d="M2443 3791 c18 -88 89 -151 202 -176 90 -20 131 -54 141 -117 11 -67
28 -16 28 87 2 163 -33 195 -223 203 -87 3 -121 8 -135 21 -18 15 -19 15 -13
-18z"/>
<path d="M3820 3801 c-8 -5 -67 -11 -131 -13 -134 -6 -169 -20 -200 -80 -20
-38 -26 -141 -13 -207 7 -36 24 -42 24 -8 0 27 33 83 57 95 10 5 54 19 98 31
91 25 137 56 164 109 37 73 37 93 1 73z"/>
<path d="M2190 3660 c-31 -21 -179 -62 -359 -100 -299 -64 -415 -112 -515
-214 -33 -34 -66 -69 -71 -77 -34 -47 -81 -178 -120 -334 -55 -218 -86 -295
-140 -352 l-42 -43 43 0 c138 0 251 106 373 349 64 126 137 246 192 311 79 95
156 140 343 202 193 63 263 108 308 198 15 30 28 58 28 63 0 10 -22 9 -40 -3z"/>
<path d="M2313 3554 c-62 -134 -56 -271 17 -374 11 -15 16 -31 12 -36 -4 -5
-3 -6 2 -2 10 8 100 -114 136 -184 13 -26 28 -44 32 -42 12 8 10 112 -3 137
-6 12 -25 37 -42 55 -29 30 -32 39 -37 120 -5 82 -6 87 -28 88 -62 3 -82 81
-58 224 7 47 12 87 10 89 -2 2 -20 -31 -41 -75z"/>
<path d="M2172 3258 c-13 -20 -45 -53 -71 -73 -49 -35 -198 -113 -301 -156
-289 -121 -407 -250 -496 -544 -74 -246 -109 -316 -193 -382 -25 -20 -50 -41
-56 -46 -6 -6 24 -7 80 -4 95 7 187 33 234 67 16 11 33 20 38 20 5 0 14 -44
20 -97 18 -149 64 -272 146 -393 41 -59 181 -204 185 -192 2 6 -8 32 -21 59
-79 157 -137 367 -137 495 0 88 34 221 76 298 49 90 100 154 233 300 131 143
191 222 231 301 53 103 78 237 62 334 l-7 50 -23 -37z"/>
<path d="M3501 3195 c-1 -109 -20 -198 -49 -227 -18 -18 -20 -18 -50 -1 -30
17 -33 17 -142 -10 l-111 -27 -114 26 c-108 25 -116 25 -146 10 -32 -16 -34
-16 -56 9 -13 13 -24 27 -24 30 0 2 -6 20 -14 39 -8 20 -15 41 -16 48 0 7 -5
0 -9 -16 -13 -42 0 -115 27 -159 13 -21 48 -53 79 -73 57 -36 82 -38 64 -3
-11 19 -6 39 8 39 13 0 42 -57 42 -80 0 -13 18 -42 40 -66 39 -42 40 -46 40
-112 0 -53 -4 -72 -17 -84 -33 -29 -122 -68 -215 -95 l-91 -26 -19 23 c-25 31
-19 43 28 52 21 3 53 12 69 20 28 12 25 13 -58 16 -87 3 -88 3 -107 35 -26 42
-25 50 6 43 62 -16 183 -26 205 -17 21 8 17 10 -28 16 -29 4 -50 11 -47 16 3
5 -2 6 -11 3 -17 -7 -151 34 -164 50 -5 6 -12 22 -16 35 -6 21 -5 23 11 16 97
-42 264 -75 301 -60 13 5 -5 13 -62 26 -105 25 -249 96 -253 125 -3 21 -1 21
52 -7 51 -25 160 -48 172 -36 3 2 -26 15 -63 28 -51 18 -81 37 -119 74 -28 28
-54 57 -57 65 -13 35 -110 -116 -151 -236 -13 -38 -47 -116 -74 -174 -63 -131
-80 -182 -93 -279 -11 -76 -5 -205 11 -230 5 -9 12 14 20 60 16 99 59 241 71
237 14 -5 13 -8 -13 -113 -18 -74 -22 -119 -23 -255 0 -186 13 -264 70 -405
40 -99 127 -263 132 -248 2 5 -8 49 -21 96 -95 326 -20 661 197 885 29 29 57
50 64 48 7 -3 12 0 10 6 -4 18 117 74 198 91 139 31 323 18 437 -31 66 -29
126 -86 134 -128 6 -35 -6 -82 -31 -120 l-14 -22 -43 38 c-23 22 -45 37 -50
34 -4 -3 -8 -24 -8 -47 0 -23 -9 -61 -20 -84 -19 -43 -40 -57 -40 -27 0 18
-38 84 -48 84 -4 0 -19 -24 -35 -53 -15 -28 -48 -78 -74 -110 l-48 -59 -47 54
c-27 29 -46 59 -43 66 3 7 0 10 -5 7 -6 -4 -21 16 -33 44 -12 28 -27 51 -33
51 -12 0 -54 -79 -54 -100 0 -6 -5 -8 -10 -5 -19 12 -41 79 -43 132 -1 29 -6
53 -12 53 -5 0 -28 -19 -51 -41 -39 -38 -43 -40 -52 -22 -6 10 -13 35 -17 56
-4 20 -10 37 -14 37 -11 0 -121 -172 -121 -188 0 -7 -4 -11 -8 -8 -4 2 -8 -3
-9 -12 0 -9 -8 -46 -18 -82 -14 -50 -16 -90 -13 -185 7 -157 28 -224 173 -525
154 -321 159 -338 160 -480 0 -104 -2 -120 -27 -173 l-27 -58 25 20 c29 23 75
83 109 144 38 69 55 143 55 241 0 108 -24 207 -99 405 -82 214 -96 295 -69
386 12 40 12 39 19 -50 8 -117 32 -175 127 -322 86 -132 111 -194 119 -298 5
-61 -6 -173 -24 -242 -3 -13 -1 -23 5 -23 5 0 50 31 99 69 156 121 263 254
350 437 45 96 112 288 133 387 22 95 34 69 27 -56 -11 -194 -41 -315 -114
-462 -51 -104 -154 -251 -172 -247 -7 1 -9 -2 -6 -8 4 -7 -31 -48 -81 -96 -48
-46 -85 -86 -82 -90 7 -6 197 109 278 169 86 64 197 175 262 262 135 180 203
371 230 646 19 196 2 311 -87 589 -43 136 -65 221 -65 256 0 23 10 11 51 -61
29 -50 84 -133 123 -185 123 -166 135 -185 177 -290 24 -59 18 -277 -10 -375
-24 -89 -75 -229 -116 -319 -14 -32 -25 -62 -23 -67 8 -25 306 238 349 309 12
17 24 30 28 28 4 -3 8 0 8 7 0 7 16 37 35 67 89 139 120 314 79 451 -44 145
-128 253 -355 455 -172 152 -260 292 -291 459 -31 165 -27 161 -61 68 -28 -79
-30 -83 -59 -83 -29 0 -30 -1 -27 -43 4 -45 -19 -117 -37 -117 -5 0 -20 13
-33 29 -13 16 -50 49 -84 74 -78 59 -80 62 -88 127 -4 30 -16 71 -26 90 l-18
35 -1 -100z m135 -254 c19 -19 34 -39 34 -46 0 -17 -52 -52 -134 -92 l-71 -34
55 6 c30 3 81 18 113 34 56 27 58 27 55 7 -4 -30 -147 -100 -248 -123 -44 -10
-80 -22 -80 -27 0 -23 213 17 311 58 13 6 16 2 11 -20 -6 -35 -75 -66 -196
-90 -61 -12 -83 -20 -70 -24 23 -9 109 -3 178 10 27 6 51 9 53 6 2 -2 -4 -20
-13 -40 l-18 -36 -90 0 c-101 0 -105 -12 -11 -33 32 -7 60 -18 62 -24 2 -5 -4
-20 -14 -32 l-18 -22 -70 17 c-77 19 -179 61 -225 94 -28 20 -30 25 -30 91 0
67 1 71 40 113 25 27 40 53 40 69 0 28 44 87 56 75 4 -5 2 -19 -4 -33 -15 -32
0 -40 38 -20 53 27 105 81 130 134 l23 50 30 -17 c17 -9 45 -32 63 -51z"/>
<path d="M2286 2850 c-10 -19 -104 -120 -210 -225 -236 -234 -249 -249 -295
-340 -69 -135 -77 -256 -27 -403 29 -85 64 -148 158 -289 37 -56 68 -107 68
-112 0 -5 4 -11 9 -13 15 -6 127 -180 170 -265 22 -46 52 -120 65 -165 31
-102 32 -77 5 73 -32 179 -60 251 -192 500 -32 58 -55 109 -52 112 3 4 2 5 -1
2 -11 -7 -54 94 -70 165 -15 63 -13 141 5 208 6 22 9 15 15 -37 10 -90 58
-213 113 -296 47 -69 149 -185 164 -185 4 0 -12 42 -37 94 -83 176 -109 288
-101 439 7 137 24 191 122 397 93 196 118 269 113 332 l-3 43 -19 -35z"/>
</g>
</svg>
